<svg xmlns="http://www.w3.org/2000/svg" width="101.508" height="104.775" viewBox="0 0 101.508 104.775">
  <g id="logotipo" transform="translate(0 42.8)">
    <path id="path" d="M372.792,69.111s1.678,3.636,0,5.146-6.919-2.062-8.19,0,2.744,5.884,4.423,6.863,5.185,1.068,7.422,0c1.794-.856,2.541-2.174,3.448-4.353s8.913-6.562,11.683,7.291c.6,3.012,1.458,4.666,1.167,17.06s-1.175,11.091-1.773,12.585c-.875,1.9-4.809,6.361-9.35,4.045s-7.1-8.027-7.1-8.027,7.091,7.762,12.079,3.982,6.148-12.585,6.148-12.585" transform="translate(-341.884 -57.446)" fill="none" stroke="#484b4d" stroke-width="2"/>
    <g id="shape" transform="translate(0 -8.776)" fill="#fff" stroke="#484b4d" stroke-width="1">
      <rect width="63" height="22" rx="5" stroke="none"/>
      <rect x="0.5" y="0.5" width="62" height="21" rx="4.5" fill="none"/>
    </g>
    <g id="ondas" transform="translate(63.593 -41.32)">
      <path id="Caminho_37" data-name="Caminho 37" d="M-3113.758,608.416s5.917,1.86,8.791,5.41,2.705,8.791,2.705,8.791" transform="translate(3113.758 -589.605)" fill="none" stroke="#484b4d" stroke-width="3"/>
      <path id="Caminho_38" data-name="Caminho 38" d="M-3116.66,602.58s5.745,3.082,7.286,4.9a65.757,65.757,0,0,1,5.744,7.566,23.335,23.335,0,0,1,2.662,10.648" transform="translate(3123.078 -594.734)" fill="none" stroke="#484b4d" stroke-width="3"/>
      <path id="Caminho_38-2" data-name="Caminho 38" d="M-3122.18,600.68s6.848,1.129,13.854,9.4a44.12,44.12,0,0,1,4.641,6.3,49.165,49.165,0,0,1,5.6,14.571" transform="translate(3132.94 -600.68)" fill="none" stroke="#484b4d" stroke-width="3"/>
    </g>
    <g id="olhos" transform="translate(7.925 -5.403)">
      <g id="Caminho_43" data-name="Caminho 43" transform="translate(0 0)" fill="#40e2ab">
        <path d="M 7.925085544586182 15.35017585754395 C 3.830875635147095 15.35017585754395 0.4999955594539642 12.01929569244385 0.4999955594539642 7.925085544586182 C 0.4999955594539642 3.830875635147095 3.830875635147095 0.4999955594539642 7.925085544586182 0.4999955594539642 C 12.01929569244385 0.4999955594539642 15.35017585754395 3.830875635147095 15.35017585754395 7.925085544586182 C 15.35017585754395 12.01929569244385 12.01929569244385 15.35017585754395 7.925085544586182 15.35017585754395 Z" stroke="none"/>
        <path d="M 7.925085544586182 0.999995231628418 C 4.106575965881348 0.999995231628418 0.999995231628418 4.106575965881348 0.999995231628418 7.925085544586182 C 0.999995231628418 11.74359512329102 4.106575965881348 14.85017585754395 7.925085544586182 14.85017585754395 C 11.74359512329102 14.85017585754395 14.85017585754395 11.74359512329102 14.85017585754395 7.925085544586182 C 14.85017585754395 4.106575965881348 11.74359512329102 0.999995231628418 7.925085544586182 0.999995231628418 M 7.925085544586182 -4.76837158203125e-06 C 12.30198574066162 -4.76837158203125e-06 15.85017585754395 3.548185348510742 15.85017585754395 7.925085544586182 C 15.85017585754395 12.30198574066162 12.30198574066162 15.85017585754395 7.925085544586182 15.85017585754395 C 3.548185348510742 15.85017585754395 -4.76837158203125e-06 12.30198574066162 -4.76837158203125e-06 7.925085544586182 C -4.76837158203125e-06 3.548185348510742 3.548185348510742 -4.76837158203125e-06 7.925085544586182 -4.76837158203125e-06 Z" stroke="none" fill="#484b4d"/>
      </g>
      <g id="Elipse_2" data-name="Elipse 2" transform="translate(32.075 -0.373)" fill="#40e2ab" stroke="#484b4d" stroke-width="1">
        <ellipse cx="7.5" cy="8" rx="7.5" ry="8" stroke="none"/>
        <ellipse cx="7.5" cy="8" rx="7" ry="7.5" fill="none"/>
      </g>
    </g>
    <path id="Caminho_39" data-name="Caminho 39" d="M62.865,49.521S73.44,43.4,79.586,46.945s3.586,12.935,0,17.246-14.344,0-14.344,0" transform="translate(-14.629 -29.18)" fill="none" stroke="#484b4d" stroke-width="2"/>
    <path id="Caminho_40" data-name="Caminho 40" d="M70.619,84.629s1.681,1.881,3.537,1.765,2.9.035,3.9-.832c1.664-1.57,4.085-4.241,4.57-6.169.843-3.353-.523-5.123-2.732-5.123s-3.928,1.708-3.372,5.123,5.421,7.188,8.836,8.29,5.361.724,7.172,0,4.952-5.728,6.318-11.876,2.561-22.54,2.561-22.54L100.075,67.3s-.139,4.055-.285,9.412c.063,1.061-.574,4.147,2.4,7.242,1.956,1.878,1.355,1.422,3.668,2.44,4.269,1.878,7.684-3.074,7.684-3.074" transform="translate(-16.238 -30.721)" fill="none" stroke="#484b4d" stroke-width="2"/>
    <g id="Grupo_8" data-name="Grupo 8" transform="translate(73.459 34.242)">
      <path id="Caminho_41" data-name="Caminho 41" d="M91.167,60.856s-4.449-5.337,2.1-4.6,11.953,3.214,18.389,3.214,5.517-5.447,5.517-5.447" transform="translate(-89.691 -54.026)" fill="none" stroke="#484b4d" stroke-width="1"/>
      <path id="Caminho_42" data-name="Caminho 42" d="M-2230.793,674.518s-2.271-2.832,3.028-3.029,14.694,1.795,14.694,1.795" transform="translate(2232.095 -667.949)" fill="none" stroke="#484b4d" stroke-width="1"/>
    </g>
  </g>
</svg>
