<svg xmlns="http://www.w3.org/2000/svg" width="51.195" height="45.415" viewBox="0 0 51.195 45.415">
  <g id="dog" transform="translate(0 -28.903)">
    <path id="Caminho_22" data-name="Caminho 22" d="M100.745,37.987H92.488c-2.993,1.187-3.657-.826-9.909-.826s-6.915,2.013-9.909.826H64.413l-1.1,20.746c.688,8.154,5.746,12.592,9.737,14.209h19.06c3.991-1.617,9.049-6.055,9.737-14.209Z" transform="translate(-56.981 -7.432)" fill="#f5dcb4"/>
    <path id="Caminho_23" data-name="Caminho 23" d="M355.1,30.554c9.3,2.783,4.236,17.134,10.222,23.337a1.644,1.644,0,0,0,2.737-.689,24.433,24.433,0,0,0,.872-7.578c-.1-4.851,1.858-5.161,1.858-5.161s-2.477-11.56-9.909-11.56A16.289,16.289,0,0,0,355.1,30.554Z" transform="translate(-319.591)" fill="#965a50"/>
    <path id="Caminho_24" data-name="Caminho 24" d="M143.277,193.238h0a2.9,2.9,0,0,1-2.89-2.89V188.7a2.9,2.9,0,0,1,2.89-2.89h0a2.9,2.9,0,0,1,2.89,2.89v1.651A2.9,2.9,0,0,1,143.277,193.238Z" transform="translate(-126.35 -141.215)" fill="#4b3f4e"/>
    <path id="Caminho_25" data-name="Caminho 25" d="M165.574,185.806a2.84,2.84,0,0,0-.413.042v4.087a1.651,1.651,0,0,0,3.3,0V188.7A2.9,2.9,0,0,0,165.574,185.806Z" transform="translate(-148.647 -141.214)" fill="#5d5360"/>
    <circle id="Elipse_4" data-name="Elipse 4" cx="1.239" cy="1.239" r="1.239" transform="translate(15.689 45.417)" fill="#fff"/>
    <path id="Caminho_26" data-name="Caminho 26" d="M316.7,193.238h0a2.9,2.9,0,0,1-2.89-2.89V188.7a2.9,2.9,0,0,1,2.89-2.89h0a2.9,2.9,0,0,1,2.89,2.89v1.651A2.9,2.9,0,0,1,316.7,193.238Z" transform="translate(-282.429 -141.215)" fill="#4b3f4e"/>
    <path id="Caminho_27" data-name="Caminho 27" d="M338.994,185.806a2.84,2.84,0,0,0-.413.042v4.087a1.651,1.651,0,0,0,3.3,0V188.7A2.9,2.9,0,0,0,338.994,185.806Z" transform="translate(-304.726 -141.214)" fill="#5d5360"/>
    <circle id="Elipse_5" data-name="Elipse 5" cx="1.239" cy="1.239" r="1.239" transform="translate(33.029 45.417)" fill="#fff"/>
    <path id="Caminho_28" data-name="Caminho 28" d="M365.319,67.175a1.644,1.644,0,0,0,2.737-.69,20.3,20.3,0,0,0,.708-3.631c-1.623-.809-3.009-3.391-3.861-7.766-1.548-7.948-3.716-12.386-9.805-11.251C364.394,46.621,359.333,60.972,365.319,67.175Z" transform="translate(-319.591 -13.283)" fill="#824641"/>
    <path id="Caminho_29" data-name="Caminho 29" d="M73.049,80.376h3.914s-6.873-4.61-8.008-12.764c-2.209-15.863,2-20.609,5.632-21.82a4.615,4.615,0,0,1-1.916-.371H64.413l-1.1,20.746C64,74.32,69.058,78.759,73.049,80.376Z" transform="translate(-56.981 -14.865)" fill="#e7c9a5"/>
    <path id="Caminho_30" data-name="Caminho 30" d="M15.689,30.554c-9.3,2.783-4.236,17.134-10.222,23.337A1.644,1.644,0,0,1,2.73,53.2a24.433,24.433,0,0,1-.872-7.578C1.961,40.773,0,40.463,0,40.463S2.477,28.9,9.909,28.9A16.289,16.289,0,0,1,15.689,30.554Z" fill="#965a50"/>
    <path id="Caminho_31" data-name="Caminho 31" d="M15.412,30.423a15.4,15.4,0,0,0-5.5-1.52C2.477,28.9,0,40.463,0,40.463s1.961.31,1.858,5.161c0,.065,0,.123,0,.187C6.609,27.784,13.911,29.79,15.412,30.423Z" fill="#824641"/>
    <ellipse id="Elipse_6" data-name="Elipse 6" cx="9.083" cy="6.605" rx="9.083" ry="6.605" transform="translate(16.514 59.456)" fill="#bc8e78"/>
    <path id="Caminho_32" data-name="Caminho 32" d="M214.71,400.516v4.129a4.129,4.129,0,1,0,8.257,0v-4.129Z" transform="translate(-193.241 -334.455)" fill="#ff8087"/>
    <path id="Caminho_33" data-name="Caminho 33" d="M214.71,403.74a9.091,9.091,0,0,0,3.3-1.062v1.14a.826.826,0,0,0,1.651,0v-1.151a8.913,8.913,0,0,0,3.3,1.073v-3.225H214.71Z" transform="translate(-193.241 -334.454)" fill="#e6646e"/>
    <path id="Caminho_34" data-name="Caminho 34" d="M157.315,326.194H146.581c-3.42,0-6.193,2.033-6.193,4.541s2.773,4.541,6.193,4.541a7.42,7.42,0,0,0,4.4-1.35,1.64,1.64,0,0,1,1.936,0,7.42,7.42,0,0,0,4.4,1.35c3.42,0,6.193-2.033,6.193-4.541S160.736,326.194,157.315,326.194Z" transform="translate(-126.351 -267.565)" fill="#d4af91"/>
    <path id="Caminho_35" data-name="Caminho 35" d="M211.4,293.161c2.736,0,4.954,1.479,4.954,3.3,0,1.759-2.082,2.686-3.585,3.37a3.3,3.3,0,0,1-2.739,0c-1.5-.685-3.585-1.611-3.585-3.37C206.45,294.64,208.668,293.161,211.4,293.161Z" transform="translate(-185.807 -237.835)" fill="#5d5360"/>
    <path id="Caminho_36" data-name="Caminho 36" d="M208.9,297.8a3.848,3.848,0,0,1,.617-2.15c-1.8.495-3.068,1.675-3.068,3.054,0,1.759,2.082,2.685,3.585,3.37a3.3,3.3,0,0,0,2.739,0c.323-.147.673-.307,1.023-.482C211.768,301.236,209.136,299.895,208.9,297.8Z" transform="translate(-185.809 -240.079)" fill="#4b3f4e"/>
  </g>
</svg>
