<svg xmlns="http://www.w3.org/2000/svg" width="285.79" height="541.653" viewBox="0 0 285.79 541.653">
  <defs>
    <style>
      .cls-1 {
        fill: #fff;
      }

      .cls-2 {
        fill: none;
        stroke: #fff;
        stroke-width: 7px;
      }
    </style>
  </defs>
  <g id="patas" transform="translate(-1115.759 -41.517) rotate(-31)">
    <g id="Grupo_18" data-name="Grupo 18" transform="translate(-112 226)">
      <g id="patas-2" data-name="patas">
        <g id="baidu-paw-logo_icon-icons.com_57182" transform="matrix(0.995, 0.105, -0.105, 0.995, 891.707, 829.406)">
          <path id="Baidu" class="cls-1" d="M24.012,33.588c.535,7.65-3.611,14.173-9.264,14.57S4.081,42.675,3.546,35.023,7.157,20.849,12.81,20.452,23.478,25.937,24.012,33.588ZM62.938,1.874C57.447.473,51.464,5.363,49.576,12.795S50.6,27.387,56.09,28.788,67.566,25.3,69.455,17.867C71.914,8.194,64.253,2.208,62.938,1.874ZM75.812,26.925c-5.775.086-10.359,5.579-10.232,14.088s4.9,12.387,10.685,12.3S86.623,49.211,86.5,40.7C86.33,29.626,77.195,26.905,75.812,26.925ZM33.965,0c-5.5,0-9.951,6.16-9.951,13.756s4.455,13.753,9.951,13.753,9.952-6.157,9.952-13.753S39.461,0,33.965,0ZM32.693,42.72A69.91,69.91,0,0,1,18.931,57.563C11.943,63.4,8.979,67.421,8.979,73.358S12.367,89.153,22,89.153s14.292-2.121,21.915-2.121S56.623,90,66.255,90s13.658-9.117,13.658-15.053-1.672-9.3-9.391-16.072a85.657,85.657,0,0,1-15.7-17c-3.245-4.508-6.987-5.088-10.9-5.088A13.017,13.017,0,0,0,32.693,42.72Z"/>
        </g>
        <g id="baidu-paw-logo_icon-icons.com_57182-2" data-name="baidu-paw-logo_icon-icons.com_57182" transform="translate(1032.977 769.27) rotate(22)">
          <path id="Baidu-2" data-name="Baidu" class="cls-1" d="M24.012,33.588c.535,7.65-3.611,14.173-9.264,14.57S4.081,42.675,3.546,35.023,7.157,20.849,12.81,20.452,23.478,25.937,24.012,33.588ZM62.938,1.874C57.447.473,51.464,5.363,49.576,12.795S50.6,27.387,56.09,28.788,67.566,25.3,69.455,17.867C71.914,8.194,64.253,2.208,62.938,1.874ZM75.812,26.925c-5.775.086-10.359,5.579-10.232,14.088s4.9,12.387,10.685,12.3S86.623,49.211,86.5,40.7C86.33,29.626,77.195,26.905,75.812,26.925ZM33.965,0c-5.5,0-9.951,6.16-9.951,13.756s4.455,13.753,9.951,13.753,9.952-6.157,9.952-13.753S39.461,0,33.965,0ZM32.693,42.72A69.91,69.91,0,0,1,18.931,57.563C11.943,63.4,8.979,67.421,8.979,73.358S12.367,89.153,22,89.153s14.292-2.121,21.915-2.121S56.623,90,66.255,90s13.658-9.117,13.658-15.053-1.672-9.3-9.391-16.072a85.657,85.657,0,0,1-15.7-17c-3.245-4.508-6.987-5.088-10.9-5.088A13.017,13.017,0,0,0,32.693,42.72Z"/>
        </g>
        <g id="baidu-paw-logo_icon-icons.com_57182-3" data-name="baidu-paw-logo_icon-icons.com_57182" transform="translate(950.845 609.011) rotate(11)">
          <path id="Baidu-3" data-name="Baidu" class="cls-1" d="M24.012,33.588c.535,7.65-3.611,14.173-9.264,14.57S4.081,42.675,3.546,35.023,7.157,20.849,12.81,20.452,23.478,25.937,24.012,33.588ZM62.938,1.874C57.447.473,51.464,5.363,49.576,12.795S50.6,27.387,56.09,28.788,67.566,25.3,69.455,17.867C71.914,8.194,64.253,2.208,62.938,1.874ZM75.812,26.925c-5.775.086-10.359,5.579-10.232,14.088s4.9,12.387,10.685,12.3S86.623,49.211,86.5,40.7C86.33,29.626,77.195,26.905,75.812,26.925ZM33.965,0c-5.5,0-9.951,6.16-9.951,13.756s4.455,13.753,9.951,13.753,9.952-6.157,9.952-13.753S39.461,0,33.965,0ZM32.693,42.72A69.91,69.91,0,0,1,18.931,57.563C11.943,63.4,8.979,67.421,8.979,73.358S12.367,89.153,22,89.153s14.292-2.121,21.915-2.121S56.623,90,66.255,90s13.658-9.117,13.658-15.053-1.672-9.3-9.391-16.072a85.657,85.657,0,0,1-15.7-17c-3.245-4.508-6.987-5.088-10.9-5.088A13.017,13.017,0,0,0,32.693,42.72Z"/>
        </g>
        <g id="baidu-paw-logo_icon-icons.com_57182-4" data-name="baidu-paw-logo_icon-icons.com_57182" transform="matrix(0.891, 0.454, -0.454, 0.891, 1107.098, 533.644)">
          <path id="Baidu-4" data-name="Baidu" class="cls-1" d="M24.012,33.588c.535,7.65-3.611,14.173-9.264,14.57S4.081,42.675,3.546,35.023,7.157,20.849,12.81,20.452,23.478,25.937,24.012,33.588ZM62.938,1.874C57.447.473,51.464,5.363,49.576,12.795S50.6,27.387,56.09,28.788,67.566,25.3,69.455,17.867C71.914,8.194,64.253,2.208,62.938,1.874ZM75.812,26.925c-5.775.086-10.359,5.579-10.232,14.088s4.9,12.387,10.685,12.3S86.623,49.211,86.5,40.7C86.33,29.626,77.195,26.905,75.812,26.925ZM33.965,0c-5.5,0-9.951,6.16-9.951,13.756s4.455,13.753,9.951,13.753,9.952-6.157,9.952-13.753S39.461,0,33.965,0ZM32.693,42.72A69.91,69.91,0,0,1,18.931,57.563C11.943,63.4,8.979,67.421,8.979,73.358S12.367,89.153,22,89.153s14.292-2.121,21.915-2.121S56.623,90,66.255,90s13.658-9.117,13.658-15.053-1.672-9.3-9.391-16.072a85.657,85.657,0,0,1-15.7-17c-3.245-4.508-6.987-5.088-10.9-5.088A13.017,13.017,0,0,0,32.693,42.72Z"/>
        </g>
      </g>
      <g id="sinal" transform="translate(786.032 -1440.223) rotate(14)">
        <path id="Caminho_1" data-name="Caminho 1" class="cls-2" d="M2673.059,1762.764s74.615-24.25,145.5,0" transform="translate(-1990)"/>
        <path id="Caminho_2" data-name="Caminho 2" class="cls-2" d="M2673.059,1759.586s52.613-17.1,102.595,0" transform="translate(-1969 18.895)"/>
        <path id="Caminho_3" data-name="Caminho 3" class="cls-2" d="M2673.059,1756.925s34.191-11.112,66.672,0" transform="translate(-1951 34.225)"/>
      </g>
    </g>
  </g>
</svg>
