<svg xmlns="http://www.w3.org/2000/svg" width="2079.919" height="1231.438" viewBox="0 0 2079.919 1231.438">
  <g id="fundo-3" transform="translate(215.799 -2768.864) rotate(7)">
    <g id="patas" transform="matrix(0.996, 0.087, -0.087, 0.996, -343.803, 2755.964)">
      <g id="Grupo_18" data-name="Grupo 18" transform="translate(-112 226)">
        <g id="patas-2" data-name="patas">
          <g id="baidu-paw-logo_icon-icons.com_57182" transform="matrix(0.995, 0.105, -0.105, 0.995, 891.707, 829.406)">
            <path id="Baidu" d="M24.012,33.588c.535,7.65-3.611,14.173-9.264,14.57S4.081,42.675,3.546,35.023,7.157,20.849,12.81,20.452,23.478,25.937,24.012,33.588ZM62.938,1.874C57.447.473,51.464,5.363,49.576,12.795S50.6,27.387,56.09,28.788,67.566,25.3,69.455,17.867C71.914,8.194,64.253,2.208,62.938,1.874ZM75.812,26.925c-5.775.086-10.359,5.579-10.232,14.088s4.9,12.387,10.685,12.3S86.623,49.211,86.5,40.7C86.33,29.626,77.195,26.905,75.812,26.925ZM33.965,0c-5.5,0-9.951,6.16-9.951,13.756s4.455,13.753,9.951,13.753,9.952-6.157,9.952-13.753S39.461,0,33.965,0ZM32.693,42.72A69.91,69.91,0,0,1,18.931,57.563C11.943,63.4,8.979,67.421,8.979,73.358S12.367,89.153,22,89.153s14.292-2.121,21.915-2.121S56.623,90,66.255,90s13.658-9.117,13.658-15.053-1.672-9.3-9.391-16.072a85.657,85.657,0,0,1-15.7-17c-3.245-4.508-6.987-5.088-10.9-5.088A13.017,13.017,0,0,0,32.693,42.72Z" fill="#037882"/>
          </g>
          <g id="baidu-paw-logo_icon-icons.com_57182-2" data-name="baidu-paw-logo_icon-icons.com_57182" transform="translate(1032.977 769.27) rotate(22)">
            <path id="Baidu-2" data-name="Baidu" d="M24.012,33.588c.535,7.65-3.611,14.173-9.264,14.57S4.081,42.675,3.546,35.023,7.157,20.849,12.81,20.452,23.478,25.937,24.012,33.588ZM62.938,1.874C57.447.473,51.464,5.363,49.576,12.795S50.6,27.387,56.09,28.788,67.566,25.3,69.455,17.867C71.914,8.194,64.253,2.208,62.938,1.874ZM75.812,26.925c-5.775.086-10.359,5.579-10.232,14.088s4.9,12.387,10.685,12.3S86.623,49.211,86.5,40.7C86.33,29.626,77.195,26.905,75.812,26.925ZM33.965,0c-5.5,0-9.951,6.16-9.951,13.756s4.455,13.753,9.951,13.753,9.952-6.157,9.952-13.753S39.461,0,33.965,0ZM32.693,42.72A69.91,69.91,0,0,1,18.931,57.563C11.943,63.4,8.979,67.421,8.979,73.358S12.367,89.153,22,89.153s14.292-2.121,21.915-2.121S56.623,90,66.255,90s13.658-9.117,13.658-15.053-1.672-9.3-9.391-16.072a85.657,85.657,0,0,1-15.7-17c-3.245-4.508-6.987-5.088-10.9-5.088A13.017,13.017,0,0,0,32.693,42.72Z" fill="#037882"/>
          </g>
          <g id="baidu-paw-logo_icon-icons.com_57182-3" data-name="baidu-paw-logo_icon-icons.com_57182" transform="translate(950.845 609.011) rotate(11)">
            <path id="Baidu-3" data-name="Baidu" d="M24.012,33.588c.535,7.65-3.611,14.173-9.264,14.57S4.081,42.675,3.546,35.023,7.157,20.849,12.81,20.452,23.478,25.937,24.012,33.588ZM62.938,1.874C57.447.473,51.464,5.363,49.576,12.795S50.6,27.387,56.09,28.788,67.566,25.3,69.455,17.867C71.914,8.194,64.253,2.208,62.938,1.874ZM75.812,26.925c-5.775.086-10.359,5.579-10.232,14.088s4.9,12.387,10.685,12.3S86.623,49.211,86.5,40.7C86.33,29.626,77.195,26.905,75.812,26.925ZM33.965,0c-5.5,0-9.951,6.16-9.951,13.756s4.455,13.753,9.951,13.753,9.952-6.157,9.952-13.753S39.461,0,33.965,0ZM32.693,42.72A69.91,69.91,0,0,1,18.931,57.563C11.943,63.4,8.979,67.421,8.979,73.358S12.367,89.153,22,89.153s14.292-2.121,21.915-2.121S56.623,90,66.255,90s13.658-9.117,13.658-15.053-1.672-9.3-9.391-16.072a85.657,85.657,0,0,1-15.7-17c-3.245-4.508-6.987-5.088-10.9-5.088A13.017,13.017,0,0,0,32.693,42.72Z" fill="#037882"/>
          </g>
          <g id="baidu-paw-logo_icon-icons.com_57182-4" data-name="baidu-paw-logo_icon-icons.com_57182" transform="matrix(0.891, 0.454, -0.454, 0.891, 1107.098, 533.644)">
            <path id="Baidu-4" data-name="Baidu" d="M24.012,33.588c.535,7.65-3.611,14.173-9.264,14.57S4.081,42.675,3.546,35.023,7.157,20.849,12.81,20.452,23.478,25.937,24.012,33.588ZM62.938,1.874C57.447.473,51.464,5.363,49.576,12.795S50.6,27.387,56.09,28.788,67.566,25.3,69.455,17.867C71.914,8.194,64.253,2.208,62.938,1.874ZM75.812,26.925c-5.775.086-10.359,5.579-10.232,14.088s4.9,12.387,10.685,12.3S86.623,49.211,86.5,40.7C86.33,29.626,77.195,26.905,75.812,26.925ZM33.965,0c-5.5,0-9.951,6.16-9.951,13.756s4.455,13.753,9.951,13.753,9.952-6.157,9.952-13.753S39.461,0,33.965,0ZM32.693,42.72A69.91,69.91,0,0,1,18.931,57.563C11.943,63.4,8.979,67.421,8.979,73.358S12.367,89.153,22,89.153s14.292-2.121,21.915-2.121S56.623,90,66.255,90s13.658-9.117,13.658-15.053-1.672-9.3-9.391-16.072a85.657,85.657,0,0,1-15.7-17c-3.245-4.508-6.987-5.088-10.9-5.088A13.017,13.017,0,0,0,32.693,42.72Z" fill="#037882"/>
          </g>
        </g>
        <g id="sinal" transform="translate(786.032 -1440.223) rotate(14)">
          <path id="Caminho_1" data-name="Caminho 1" d="M2673.059,1762.764s74.615-24.25,145.5,0" transform="translate(-1990)" fill="none" stroke="#fff" stroke-width="7"/>
          <path id="Caminho_2" data-name="Caminho 2" d="M2673.059,1759.586s52.613-17.1,102.595,0" transform="translate(-1969 18.895)" fill="none" stroke="#fff" stroke-width="7"/>
          <path id="Caminho_3" data-name="Caminho 3" d="M2673.059,1756.925s34.191-11.112,66.672,0" transform="translate(-1951 34.225)" fill="none" stroke="#fff" stroke-width="7"/>
        </g>
      </g>
    </g>
    <g id="patas-3" data-name="patas" transform="translate(333.029 2766.269) rotate(-31)">
      <g id="Grupo_18-2" data-name="Grupo 18" transform="translate(-112 226)">
        <g id="patas-4" data-name="patas">
          <g id="baidu-paw-logo_icon-icons.com_57182-5" data-name="baidu-paw-logo_icon-icons.com_57182" transform="matrix(0.995, 0.105, -0.105, 0.995, 891.707, 829.406)">
            <path id="Baidu-5" data-name="Baidu" d="M24.012,33.588c.535,7.65-3.611,14.173-9.264,14.57S4.081,42.675,3.546,35.023,7.157,20.849,12.81,20.452,23.478,25.937,24.012,33.588ZM62.938,1.874C57.447.473,51.464,5.363,49.576,12.795S50.6,27.387,56.09,28.788,67.566,25.3,69.455,17.867C71.914,8.194,64.253,2.208,62.938,1.874ZM75.812,26.925c-5.775.086-10.359,5.579-10.232,14.088s4.9,12.387,10.685,12.3S86.623,49.211,86.5,40.7C86.33,29.626,77.195,26.905,75.812,26.925ZM33.965,0c-5.5,0-9.951,6.16-9.951,13.756s4.455,13.753,9.951,13.753,9.952-6.157,9.952-13.753S39.461,0,33.965,0ZM32.693,42.72A69.91,69.91,0,0,1,18.931,57.563C11.943,63.4,8.979,67.421,8.979,73.358S12.367,89.153,22,89.153s14.292-2.121,21.915-2.121S56.623,90,66.255,90s13.658-9.117,13.658-15.053-1.672-9.3-9.391-16.072a85.657,85.657,0,0,1-15.7-17c-3.245-4.508-6.987-5.088-10.9-5.088A13.017,13.017,0,0,0,32.693,42.72Z" fill="#fff"/>
          </g>
          <g id="baidu-paw-logo_icon-icons.com_57182-6" data-name="baidu-paw-logo_icon-icons.com_57182" transform="translate(1032.977 769.27) rotate(22)">
            <path id="Baidu-6" data-name="Baidu" d="M24.012,33.588c.535,7.65-3.611,14.173-9.264,14.57S4.081,42.675,3.546,35.023,7.157,20.849,12.81,20.452,23.478,25.937,24.012,33.588ZM62.938,1.874C57.447.473,51.464,5.363,49.576,12.795S50.6,27.387,56.09,28.788,67.566,25.3,69.455,17.867C71.914,8.194,64.253,2.208,62.938,1.874ZM75.812,26.925c-5.775.086-10.359,5.579-10.232,14.088s4.9,12.387,10.685,12.3S86.623,49.211,86.5,40.7C86.33,29.626,77.195,26.905,75.812,26.925ZM33.965,0c-5.5,0-9.951,6.16-9.951,13.756s4.455,13.753,9.951,13.753,9.952-6.157,9.952-13.753S39.461,0,33.965,0ZM32.693,42.72A69.91,69.91,0,0,1,18.931,57.563C11.943,63.4,8.979,67.421,8.979,73.358S12.367,89.153,22,89.153s14.292-2.121,21.915-2.121S56.623,90,66.255,90s13.658-9.117,13.658-15.053-1.672-9.3-9.391-16.072a85.657,85.657,0,0,1-15.7-17c-3.245-4.508-6.987-5.088-10.9-5.088A13.017,13.017,0,0,0,32.693,42.72Z" fill="#fff"/>
          </g>
          <g id="baidu-paw-logo_icon-icons.com_57182-7" data-name="baidu-paw-logo_icon-icons.com_57182" transform="translate(950.845 609.011) rotate(11)">
            <path id="Baidu-7" data-name="Baidu" d="M24.012,33.588c.535,7.65-3.611,14.173-9.264,14.57S4.081,42.675,3.546,35.023,7.157,20.849,12.81,20.452,23.478,25.937,24.012,33.588ZM62.938,1.874C57.447.473,51.464,5.363,49.576,12.795S50.6,27.387,56.09,28.788,67.566,25.3,69.455,17.867C71.914,8.194,64.253,2.208,62.938,1.874ZM75.812,26.925c-5.775.086-10.359,5.579-10.232,14.088s4.9,12.387,10.685,12.3S86.623,49.211,86.5,40.7C86.33,29.626,77.195,26.905,75.812,26.925ZM33.965,0c-5.5,0-9.951,6.16-9.951,13.756s4.455,13.753,9.951,13.753,9.952-6.157,9.952-13.753S39.461,0,33.965,0ZM32.693,42.72A69.91,69.91,0,0,1,18.931,57.563C11.943,63.4,8.979,67.421,8.979,73.358S12.367,89.153,22,89.153s14.292-2.121,21.915-2.121S56.623,90,66.255,90s13.658-9.117,13.658-15.053-1.672-9.3-9.391-16.072a85.657,85.657,0,0,1-15.7-17c-3.245-4.508-6.987-5.088-10.9-5.088A13.017,13.017,0,0,0,32.693,42.72Z" fill="#fff"/>
          </g>
          <g id="baidu-paw-logo_icon-icons.com_57182-8" data-name="baidu-paw-logo_icon-icons.com_57182" transform="matrix(0.891, 0.454, -0.454, 0.891, 1107.098, 533.644)">
            <path id="Baidu-8" data-name="Baidu" d="M24.012,33.588c.535,7.65-3.611,14.173-9.264,14.57S4.081,42.675,3.546,35.023,7.157,20.849,12.81,20.452,23.478,25.937,24.012,33.588ZM62.938,1.874C57.447.473,51.464,5.363,49.576,12.795S50.6,27.387,56.09,28.788,67.566,25.3,69.455,17.867C71.914,8.194,64.253,2.208,62.938,1.874ZM75.812,26.925c-5.775.086-10.359,5.579-10.232,14.088s4.9,12.387,10.685,12.3S86.623,49.211,86.5,40.7C86.33,29.626,77.195,26.905,75.812,26.925ZM33.965,0c-5.5,0-9.951,6.16-9.951,13.756s4.455,13.753,9.951,13.753,9.952-6.157,9.952-13.753S39.461,0,33.965,0ZM32.693,42.72A69.91,69.91,0,0,1,18.931,57.563C11.943,63.4,8.979,67.421,8.979,73.358S12.367,89.153,22,89.153s14.292-2.121,21.915-2.121S56.623,90,66.255,90s13.658-9.117,13.658-15.053-1.672-9.3-9.391-16.072a85.657,85.657,0,0,1-15.7-17c-3.245-4.508-6.987-5.088-10.9-5.088A13.017,13.017,0,0,0,32.693,42.72Z" fill="#fff"/>
          </g>
        </g>
        <g id="sinal-2" data-name="sinal" transform="translate(786.032 -1440.223) rotate(14)">
          <path id="Caminho_1-2" data-name="Caminho 1" d="M2673.059,1762.764s74.615-24.25,145.5,0" transform="translate(-1990)" fill="none" stroke="#fff" stroke-width="7"/>
          <path id="Caminho_2-2" data-name="Caminho 2" d="M2673.059,1759.586s52.613-17.1,102.595,0" transform="translate(-1969 18.895)" fill="none" stroke="#fff" stroke-width="7"/>
          <path id="Caminho_3-2" data-name="Caminho 3" d="M2673.059,1756.925s34.191-11.112,66.672,0" transform="translate(-1951 34.225)" fill="none" stroke="#fff" stroke-width="7"/>
        </g>
      </g>
    </g>
    <g id="patas-5" data-name="patas" transform="translate(88.894 3470.88) rotate(-42)">
      <g id="Grupo_18-3" data-name="Grupo 18" transform="translate(-112 226)">
        <g id="patas-6" data-name="patas">
          <g id="baidu-paw-logo_icon-icons.com_57182-9" data-name="baidu-paw-logo_icon-icons.com_57182" transform="matrix(0.995, 0.105, -0.105, 0.995, 891.707, 829.406)">
            <path id="Baidu-9" data-name="Baidu" d="M24.012,33.588c.535,7.65-3.611,14.173-9.264,14.57S4.081,42.675,3.546,35.023,7.157,20.849,12.81,20.452,23.478,25.937,24.012,33.588ZM62.938,1.874C57.447.473,51.464,5.363,49.576,12.795S50.6,27.387,56.09,28.788,67.566,25.3,69.455,17.867C71.914,8.194,64.253,2.208,62.938,1.874ZM75.812,26.925c-5.775.086-10.359,5.579-10.232,14.088s4.9,12.387,10.685,12.3S86.623,49.211,86.5,40.7C86.33,29.626,77.195,26.905,75.812,26.925ZM33.965,0c-5.5,0-9.951,6.16-9.951,13.756s4.455,13.753,9.951,13.753,9.952-6.157,9.952-13.753S39.461,0,33.965,0ZM32.693,42.72A69.91,69.91,0,0,1,18.931,57.563C11.943,63.4,8.979,67.421,8.979,73.358S12.367,89.153,22,89.153s14.292-2.121,21.915-2.121S56.623,90,66.255,90s13.658-9.117,13.658-15.053-1.672-9.3-9.391-16.072a85.657,85.657,0,0,1-15.7-17c-3.245-4.508-6.987-5.088-10.9-5.088A13.017,13.017,0,0,0,32.693,42.72Z" fill="#e86f31"/>
          </g>
          <g id="baidu-paw-logo_icon-icons.com_57182-10" data-name="baidu-paw-logo_icon-icons.com_57182" transform="translate(1032.977 769.27) rotate(22)">
            <path id="Baidu-10" data-name="Baidu" d="M24.012,33.588c.535,7.65-3.611,14.173-9.264,14.57S4.081,42.675,3.546,35.023,7.157,20.849,12.81,20.452,23.478,25.937,24.012,33.588ZM62.938,1.874C57.447.473,51.464,5.363,49.576,12.795S50.6,27.387,56.09,28.788,67.566,25.3,69.455,17.867C71.914,8.194,64.253,2.208,62.938,1.874ZM75.812,26.925c-5.775.086-10.359,5.579-10.232,14.088s4.9,12.387,10.685,12.3S86.623,49.211,86.5,40.7C86.33,29.626,77.195,26.905,75.812,26.925ZM33.965,0c-5.5,0-9.951,6.16-9.951,13.756s4.455,13.753,9.951,13.753,9.952-6.157,9.952-13.753S39.461,0,33.965,0ZM32.693,42.72A69.91,69.91,0,0,1,18.931,57.563C11.943,63.4,8.979,67.421,8.979,73.358S12.367,89.153,22,89.153s14.292-2.121,21.915-2.121S56.623,90,66.255,90s13.658-9.117,13.658-15.053-1.672-9.3-9.391-16.072a85.657,85.657,0,0,1-15.7-17c-3.245-4.508-6.987-5.088-10.9-5.088A13.017,13.017,0,0,0,32.693,42.72Z" fill="#e86f31"/>
          </g>
          <g id="baidu-paw-logo_icon-icons.com_57182-11" data-name="baidu-paw-logo_icon-icons.com_57182" transform="translate(950.845 609.011) rotate(11)">
            <path id="Baidu-11" data-name="Baidu" d="M24.012,33.588c.535,7.65-3.611,14.173-9.264,14.57S4.081,42.675,3.546,35.023,7.157,20.849,12.81,20.452,23.478,25.937,24.012,33.588ZM62.938,1.874C57.447.473,51.464,5.363,49.576,12.795S50.6,27.387,56.09,28.788,67.566,25.3,69.455,17.867C71.914,8.194,64.253,2.208,62.938,1.874ZM75.812,26.925c-5.775.086-10.359,5.579-10.232,14.088s4.9,12.387,10.685,12.3S86.623,49.211,86.5,40.7C86.33,29.626,77.195,26.905,75.812,26.925ZM33.965,0c-5.5,0-9.951,6.16-9.951,13.756s4.455,13.753,9.951,13.753,9.952-6.157,9.952-13.753S39.461,0,33.965,0ZM32.693,42.72A69.91,69.91,0,0,1,18.931,57.563C11.943,63.4,8.979,67.421,8.979,73.358S12.367,89.153,22,89.153s14.292-2.121,21.915-2.121S56.623,90,66.255,90s13.658-9.117,13.658-15.053-1.672-9.3-9.391-16.072a85.657,85.657,0,0,1-15.7-17c-3.245-4.508-6.987-5.088-10.9-5.088A13.017,13.017,0,0,0,32.693,42.72Z" fill="#e86f31"/>
          </g>
          <g id="baidu-paw-logo_icon-icons.com_57182-12" data-name="baidu-paw-logo_icon-icons.com_57182" transform="matrix(0.891, 0.454, -0.454, 0.891, 1107.098, 533.644)">
            <path id="Baidu-12" data-name="Baidu" d="M24.012,33.588c.535,7.65-3.611,14.173-9.264,14.57S4.081,42.675,3.546,35.023,7.157,20.849,12.81,20.452,23.478,25.937,24.012,33.588ZM62.938,1.874C57.447.473,51.464,5.363,49.576,12.795S50.6,27.387,56.09,28.788,67.566,25.3,69.455,17.867C71.914,8.194,64.253,2.208,62.938,1.874ZM75.812,26.925c-5.775.086-10.359,5.579-10.232,14.088s4.9,12.387,10.685,12.3S86.623,49.211,86.5,40.7C86.33,29.626,77.195,26.905,75.812,26.925ZM33.965,0c-5.5,0-9.951,6.16-9.951,13.756s4.455,13.753,9.951,13.753,9.952-6.157,9.952-13.753S39.461,0,33.965,0ZM32.693,42.72A69.91,69.91,0,0,1,18.931,57.563C11.943,63.4,8.979,67.421,8.979,73.358S12.367,89.153,22,89.153s14.292-2.121,21.915-2.121S56.623,90,66.255,90s13.658-9.117,13.658-15.053-1.672-9.3-9.391-16.072a85.657,85.657,0,0,1-15.7-17c-3.245-4.508-6.987-5.088-10.9-5.088A13.017,13.017,0,0,0,32.693,42.72Z" fill="#e86f31"/>
          </g>
        </g>
        <g id="sinal-3" data-name="sinal" transform="translate(786.032 -1440.223) rotate(14)">
          <path id="Caminho_1-3" data-name="Caminho 1" d="M2673.059,1762.764s74.615-24.25,145.5,0" transform="translate(-1990)" fill="none" stroke="#fff" stroke-width="7"/>
          <path id="Caminho_2-3" data-name="Caminho 2" d="M2673.059,1759.586s52.613-17.1,102.595,0" transform="translate(-1969 18.895)" fill="none" stroke="#fff" stroke-width="7"/>
          <path id="Caminho_3-3" data-name="Caminho 3" d="M2673.059,1756.925s34.191-11.112,66.672,0" transform="translate(-1951 34.225)" fill="none" stroke="#fff" stroke-width="7"/>
        </g>
      </g>
    </g>
    <g id="patas-7" data-name="patas" transform="matrix(1, 0.017, -0.017, 1, 81.891, 2416.029)">
      <g id="Grupo_18-4" data-name="Grupo 18" transform="translate(-112 226)">
        <g id="patas-8" data-name="patas">
          <g id="baidu-paw-logo_icon-icons.com_57182-13" data-name="baidu-paw-logo_icon-icons.com_57182" transform="matrix(0.995, 0.105, -0.105, 0.995, 891.707, 829.406)">
            <path id="Baidu-13" data-name="Baidu" d="M24.012,33.588c.535,7.65-3.611,14.173-9.264,14.57S4.081,42.675,3.546,35.023,7.157,20.849,12.81,20.452,23.478,25.937,24.012,33.588ZM62.938,1.874C57.447.473,51.464,5.363,49.576,12.795S50.6,27.387,56.09,28.788,67.566,25.3,69.455,17.867C71.914,8.194,64.253,2.208,62.938,1.874ZM75.812,26.925c-5.775.086-10.359,5.579-10.232,14.088s4.9,12.387,10.685,12.3S86.623,49.211,86.5,40.7C86.33,29.626,77.195,26.905,75.812,26.925ZM33.965,0c-5.5,0-9.951,6.16-9.951,13.756s4.455,13.753,9.951,13.753,9.952-6.157,9.952-13.753S39.461,0,33.965,0ZM32.693,42.72A69.91,69.91,0,0,1,18.931,57.563C11.943,63.4,8.979,67.421,8.979,73.358S12.367,89.153,22,89.153s14.292-2.121,21.915-2.121S56.623,90,66.255,90s13.658-9.117,13.658-15.053-1.672-9.3-9.391-16.072a85.657,85.657,0,0,1-15.7-17c-3.245-4.508-6.987-5.088-10.9-5.088A13.017,13.017,0,0,0,32.693,42.72Z" fill="#ffa1fc"/>
          </g>
          <g id="baidu-paw-logo_icon-icons.com_57182-14" data-name="baidu-paw-logo_icon-icons.com_57182" transform="translate(1032.977 769.27) rotate(22)">
            <path id="Baidu-14" data-name="Baidu" d="M24.012,33.588c.535,7.65-3.611,14.173-9.264,14.57S4.081,42.675,3.546,35.023,7.157,20.849,12.81,20.452,23.478,25.937,24.012,33.588ZM62.938,1.874C57.447.473,51.464,5.363,49.576,12.795S50.6,27.387,56.09,28.788,67.566,25.3,69.455,17.867C71.914,8.194,64.253,2.208,62.938,1.874ZM75.812,26.925c-5.775.086-10.359,5.579-10.232,14.088s4.9,12.387,10.685,12.3S86.623,49.211,86.5,40.7C86.33,29.626,77.195,26.905,75.812,26.925ZM33.965,0c-5.5,0-9.951,6.16-9.951,13.756s4.455,13.753,9.951,13.753,9.952-6.157,9.952-13.753S39.461,0,33.965,0ZM32.693,42.72A69.91,69.91,0,0,1,18.931,57.563C11.943,63.4,8.979,67.421,8.979,73.358S12.367,89.153,22,89.153s14.292-2.121,21.915-2.121S56.623,90,66.255,90s13.658-9.117,13.658-15.053-1.672-9.3-9.391-16.072a85.657,85.657,0,0,1-15.7-17c-3.245-4.508-6.987-5.088-10.9-5.088A13.017,13.017,0,0,0,32.693,42.72Z" fill="#ffa1fc"/>
          </g>
          <g id="baidu-paw-logo_icon-icons.com_57182-15" data-name="baidu-paw-logo_icon-icons.com_57182" transform="translate(950.845 609.011) rotate(11)">
            <path id="Baidu-15" data-name="Baidu" d="M24.012,33.588c.535,7.65-3.611,14.173-9.264,14.57S4.081,42.675,3.546,35.023,7.157,20.849,12.81,20.452,23.478,25.937,24.012,33.588ZM62.938,1.874C57.447.473,51.464,5.363,49.576,12.795S50.6,27.387,56.09,28.788,67.566,25.3,69.455,17.867C71.914,8.194,64.253,2.208,62.938,1.874ZM75.812,26.925c-5.775.086-10.359,5.579-10.232,14.088s4.9,12.387,10.685,12.3S86.623,49.211,86.5,40.7C86.33,29.626,77.195,26.905,75.812,26.925ZM33.965,0c-5.5,0-9.951,6.16-9.951,13.756s4.455,13.753,9.951,13.753,9.952-6.157,9.952-13.753S39.461,0,33.965,0ZM32.693,42.72A69.91,69.91,0,0,1,18.931,57.563C11.943,63.4,8.979,67.421,8.979,73.358S12.367,89.153,22,89.153s14.292-2.121,21.915-2.121S56.623,90,66.255,90s13.658-9.117,13.658-15.053-1.672-9.3-9.391-16.072a85.657,85.657,0,0,1-15.7-17c-3.245-4.508-6.987-5.088-10.9-5.088A13.017,13.017,0,0,0,32.693,42.72Z" fill="#ffa1fc"/>
          </g>
          <g id="baidu-paw-logo_icon-icons.com_57182-16" data-name="baidu-paw-logo_icon-icons.com_57182" transform="matrix(0.891, 0.454, -0.454, 0.891, 1107.098, 533.644)">
            <path id="Baidu-16" data-name="Baidu" d="M24.012,33.588c.535,7.65-3.611,14.173-9.264,14.57S4.081,42.675,3.546,35.023,7.157,20.849,12.81,20.452,23.478,25.937,24.012,33.588ZM62.938,1.874C57.447.473,51.464,5.363,49.576,12.795S50.6,27.387,56.09,28.788,67.566,25.3,69.455,17.867C71.914,8.194,64.253,2.208,62.938,1.874ZM75.812,26.925c-5.775.086-10.359,5.579-10.232,14.088s4.9,12.387,10.685,12.3S86.623,49.211,86.5,40.7C86.33,29.626,77.195,26.905,75.812,26.925ZM33.965,0c-5.5,0-9.951,6.16-9.951,13.756s4.455,13.753,9.951,13.753,9.952-6.157,9.952-13.753S39.461,0,33.965,0ZM32.693,42.72A69.91,69.91,0,0,1,18.931,57.563C11.943,63.4,8.979,67.421,8.979,73.358S12.367,89.153,22,89.153s14.292-2.121,21.915-2.121S56.623,90,66.255,90s13.658-9.117,13.658-15.053-1.672-9.3-9.391-16.072a85.657,85.657,0,0,1-15.7-17c-3.245-4.508-6.987-5.088-10.9-5.088A13.017,13.017,0,0,0,32.693,42.72Z" fill="#ffa1fc"/>
          </g>
        </g>
        <g id="sinal-4" data-name="sinal" transform="translate(786.032 -1440.223) rotate(14)">
          <path id="Caminho_1-4" data-name="Caminho 1" d="M2673.059,1762.764s74.615-24.25,145.5,0" transform="translate(-1990)" fill="none" stroke="#fff" stroke-width="7"/>
          <path id="Caminho_2-4" data-name="Caminho 2" d="M2673.059,1759.586s52.613-17.1,102.595,0" transform="translate(-1969 18.895)" fill="none" stroke="#fff" stroke-width="7"/>
          <path id="Caminho_3-4" data-name="Caminho 3" d="M2673.059,1756.925s34.191-11.112,66.672,0" transform="translate(-1951 34.225)" fill="none" stroke="#fff" stroke-width="7"/>
        </g>
      </g>
    </g>
    <g id="patas-9" data-name="patas" transform="translate(-745.689 2529.983) rotate(-10)">
      <g id="Grupo_18-5" data-name="Grupo 18" transform="translate(-112 226)">
        <g id="patas-10" data-name="patas">
          <g id="baidu-paw-logo_icon-icons.com_57182-17" data-name="baidu-paw-logo_icon-icons.com_57182" transform="matrix(0.995, 0.105, -0.105, 0.995, 891.707, 829.406)">
            <path id="Baidu-17" data-name="Baidu" d="M24.012,33.588c.535,7.65-3.611,14.173-9.264,14.57S4.081,42.675,3.546,35.023,7.157,20.849,12.81,20.452,23.478,25.937,24.012,33.588ZM62.938,1.874C57.447.473,51.464,5.363,49.576,12.795S50.6,27.387,56.09,28.788,67.566,25.3,69.455,17.867C71.914,8.194,64.253,2.208,62.938,1.874ZM75.812,26.925c-5.775.086-10.359,5.579-10.232,14.088s4.9,12.387,10.685,12.3S86.623,49.211,86.5,40.7C86.33,29.626,77.195,26.905,75.812,26.925ZM33.965,0c-5.5,0-9.951,6.16-9.951,13.756s4.455,13.753,9.951,13.753,9.952-6.157,9.952-13.753S39.461,0,33.965,0ZM32.693,42.72A69.91,69.91,0,0,1,18.931,57.563C11.943,63.4,8.979,67.421,8.979,73.358S12.367,89.153,22,89.153s14.292-2.121,21.915-2.121S56.623,90,66.255,90s13.658-9.117,13.658-15.053-1.672-9.3-9.391-16.072a85.657,85.657,0,0,1-15.7-17c-3.245-4.508-6.987-5.088-10.9-5.088A13.017,13.017,0,0,0,32.693,42.72Z" fill="#5073ff"/>
          </g>
          <g id="baidu-paw-logo_icon-icons.com_57182-18" data-name="baidu-paw-logo_icon-icons.com_57182" transform="translate(1032.977 769.27) rotate(22)">
            <path id="Baidu-18" data-name="Baidu" d="M24.012,33.588c.535,7.65-3.611,14.173-9.264,14.57S4.081,42.675,3.546,35.023,7.157,20.849,12.81,20.452,23.478,25.937,24.012,33.588ZM62.938,1.874C57.447.473,51.464,5.363,49.576,12.795S50.6,27.387,56.09,28.788,67.566,25.3,69.455,17.867C71.914,8.194,64.253,2.208,62.938,1.874ZM75.812,26.925c-5.775.086-10.359,5.579-10.232,14.088s4.9,12.387,10.685,12.3S86.623,49.211,86.5,40.7C86.33,29.626,77.195,26.905,75.812,26.925ZM33.965,0c-5.5,0-9.951,6.16-9.951,13.756s4.455,13.753,9.951,13.753,9.952-6.157,9.952-13.753S39.461,0,33.965,0ZM32.693,42.72A69.91,69.91,0,0,1,18.931,57.563C11.943,63.4,8.979,67.421,8.979,73.358S12.367,89.153,22,89.153s14.292-2.121,21.915-2.121S56.623,90,66.255,90s13.658-9.117,13.658-15.053-1.672-9.3-9.391-16.072a85.657,85.657,0,0,1-15.7-17c-3.245-4.508-6.987-5.088-10.9-5.088A13.017,13.017,0,0,0,32.693,42.72Z" fill="#5073ff"/>
          </g>
          <g id="baidu-paw-logo_icon-icons.com_57182-19" data-name="baidu-paw-logo_icon-icons.com_57182" transform="translate(950.845 609.011) rotate(11)">
            <path id="Baidu-19" data-name="Baidu" d="M24.012,33.588c.535,7.65-3.611,14.173-9.264,14.57S4.081,42.675,3.546,35.023,7.157,20.849,12.81,20.452,23.478,25.937,24.012,33.588ZM62.938,1.874C57.447.473,51.464,5.363,49.576,12.795S50.6,27.387,56.09,28.788,67.566,25.3,69.455,17.867C71.914,8.194,64.253,2.208,62.938,1.874ZM75.812,26.925c-5.775.086-10.359,5.579-10.232,14.088s4.9,12.387,10.685,12.3S86.623,49.211,86.5,40.7C86.33,29.626,77.195,26.905,75.812,26.925ZM33.965,0c-5.5,0-9.951,6.16-9.951,13.756s4.455,13.753,9.951,13.753,9.952-6.157,9.952-13.753S39.461,0,33.965,0ZM32.693,42.72A69.91,69.91,0,0,1,18.931,57.563C11.943,63.4,8.979,67.421,8.979,73.358S12.367,89.153,22,89.153s14.292-2.121,21.915-2.121S56.623,90,66.255,90s13.658-9.117,13.658-15.053-1.672-9.3-9.391-16.072a85.657,85.657,0,0,1-15.7-17c-3.245-4.508-6.987-5.088-10.9-5.088A13.017,13.017,0,0,0,32.693,42.72Z" fill="#5073ff"/>
          </g>
          <g id="baidu-paw-logo_icon-icons.com_57182-20" data-name="baidu-paw-logo_icon-icons.com_57182" transform="matrix(0.891, 0.454, -0.454, 0.891, 1107.098, 533.644)">
            <path id="Baidu-20" data-name="Baidu" d="M24.012,33.588c.535,7.65-3.611,14.173-9.264,14.57S4.081,42.675,3.546,35.023,7.157,20.849,12.81,20.452,23.478,25.937,24.012,33.588ZM62.938,1.874C57.447.473,51.464,5.363,49.576,12.795S50.6,27.387,56.09,28.788,67.566,25.3,69.455,17.867C71.914,8.194,64.253,2.208,62.938,1.874ZM75.812,26.925c-5.775.086-10.359,5.579-10.232,14.088s4.9,12.387,10.685,12.3S86.623,49.211,86.5,40.7C86.33,29.626,77.195,26.905,75.812,26.925ZM33.965,0c-5.5,0-9.951,6.16-9.951,13.756s4.455,13.753,9.951,13.753,9.952-6.157,9.952-13.753S39.461,0,33.965,0ZM32.693,42.72A69.91,69.91,0,0,1,18.931,57.563C11.943,63.4,8.979,67.421,8.979,73.358S12.367,89.153,22,89.153s14.292-2.121,21.915-2.121S56.623,90,66.255,90s13.658-9.117,13.658-15.053-1.672-9.3-9.391-16.072a85.657,85.657,0,0,1-15.7-17c-3.245-4.508-6.987-5.088-10.9-5.088A13.017,13.017,0,0,0,32.693,42.72Z" fill="#5073ff"/>
          </g>
        </g>
        <g id="sinal-5" data-name="sinal" transform="translate(786.032 -1440.223) rotate(14)">
          <path id="Caminho_1-5" data-name="Caminho 1" d="M2673.059,1762.764s74.615-24.25,145.5,0" transform="translate(-1990)" fill="none" stroke="#fff" stroke-width="7"/>
          <path id="Caminho_2-5" data-name="Caminho 2" d="M2673.059,1759.586s52.613-17.1,102.595,0" transform="translate(-1969 18.895)" fill="none" stroke="#fff" stroke-width="7"/>
          <path id="Caminho_3-5" data-name="Caminho 3" d="M2673.059,1756.925s34.191-11.112,66.672,0" transform="translate(-1951 34.225)" fill="none" stroke="#fff" stroke-width="7"/>
        </g>
      </g>
    </g>
    <g id="patas-11" data-name="patas" transform="translate(-353.689 2229.983) rotate(-10)">
      <g id="Grupo_18-6" data-name="Grupo 18" transform="translate(-112 226)">
        <g id="patas-12" data-name="patas">
          <g id="baidu-paw-logo_icon-icons.com_57182-21" data-name="baidu-paw-logo_icon-icons.com_57182" transform="matrix(0.995, 0.105, -0.105, 0.995, 891.707, 829.406)">
            <path id="Baidu-21" data-name="Baidu" d="M24.012,33.588c.535,7.65-3.611,14.173-9.264,14.57S4.081,42.675,3.546,35.023,7.157,20.849,12.81,20.452,23.478,25.937,24.012,33.588ZM62.938,1.874C57.447.473,51.464,5.363,49.576,12.795S50.6,27.387,56.09,28.788,67.566,25.3,69.455,17.867C71.914,8.194,64.253,2.208,62.938,1.874ZM75.812,26.925c-5.775.086-10.359,5.579-10.232,14.088s4.9,12.387,10.685,12.3S86.623,49.211,86.5,40.7C86.33,29.626,77.195,26.905,75.812,26.925ZM33.965,0c-5.5,0-9.951,6.16-9.951,13.756s4.455,13.753,9.951,13.753,9.952-6.157,9.952-13.753S39.461,0,33.965,0ZM32.693,42.72A69.91,69.91,0,0,1,18.931,57.563C11.943,63.4,8.979,67.421,8.979,73.358S12.367,89.153,22,89.153s14.292-2.121,21.915-2.121S56.623,90,66.255,90s13.658-9.117,13.658-15.053-1.672-9.3-9.391-16.072a85.657,85.657,0,0,1-15.7-17c-3.245-4.508-6.987-5.088-10.9-5.088A13.017,13.017,0,0,0,32.693,42.72Z" fill="#f77"/>
          </g>
          <g id="baidu-paw-logo_icon-icons.com_57182-22" data-name="baidu-paw-logo_icon-icons.com_57182" transform="translate(1032.977 769.27) rotate(22)">
            <path id="Baidu-22" data-name="Baidu" d="M24.012,33.588c.535,7.65-3.611,14.173-9.264,14.57S4.081,42.675,3.546,35.023,7.157,20.849,12.81,20.452,23.478,25.937,24.012,33.588ZM62.938,1.874C57.447.473,51.464,5.363,49.576,12.795S50.6,27.387,56.09,28.788,67.566,25.3,69.455,17.867C71.914,8.194,64.253,2.208,62.938,1.874ZM75.812,26.925c-5.775.086-10.359,5.579-10.232,14.088s4.9,12.387,10.685,12.3S86.623,49.211,86.5,40.7C86.33,29.626,77.195,26.905,75.812,26.925ZM33.965,0c-5.5,0-9.951,6.16-9.951,13.756s4.455,13.753,9.951,13.753,9.952-6.157,9.952-13.753S39.461,0,33.965,0ZM32.693,42.72A69.91,69.91,0,0,1,18.931,57.563C11.943,63.4,8.979,67.421,8.979,73.358S12.367,89.153,22,89.153s14.292-2.121,21.915-2.121S56.623,90,66.255,90s13.658-9.117,13.658-15.053-1.672-9.3-9.391-16.072a85.657,85.657,0,0,1-15.7-17c-3.245-4.508-6.987-5.088-10.9-5.088A13.017,13.017,0,0,0,32.693,42.72Z" fill="#f77"/>
          </g>
          <g id="baidu-paw-logo_icon-icons.com_57182-23" data-name="baidu-paw-logo_icon-icons.com_57182" transform="translate(950.845 609.011) rotate(11)">
            <path id="Baidu-23" data-name="Baidu" d="M24.012,33.588c.535,7.65-3.611,14.173-9.264,14.57S4.081,42.675,3.546,35.023,7.157,20.849,12.81,20.452,23.478,25.937,24.012,33.588ZM62.938,1.874C57.447.473,51.464,5.363,49.576,12.795S50.6,27.387,56.09,28.788,67.566,25.3,69.455,17.867C71.914,8.194,64.253,2.208,62.938,1.874ZM75.812,26.925c-5.775.086-10.359,5.579-10.232,14.088s4.9,12.387,10.685,12.3S86.623,49.211,86.5,40.7C86.33,29.626,77.195,26.905,75.812,26.925ZM33.965,0c-5.5,0-9.951,6.16-9.951,13.756s4.455,13.753,9.951,13.753,9.952-6.157,9.952-13.753S39.461,0,33.965,0ZM32.693,42.72A69.91,69.91,0,0,1,18.931,57.563C11.943,63.4,8.979,67.421,8.979,73.358S12.367,89.153,22,89.153s14.292-2.121,21.915-2.121S56.623,90,66.255,90s13.658-9.117,13.658-15.053-1.672-9.3-9.391-16.072a85.657,85.657,0,0,1-15.7-17c-3.245-4.508-6.987-5.088-10.9-5.088A13.017,13.017,0,0,0,32.693,42.72Z" fill="#f77"/>
          </g>
          <g id="baidu-paw-logo_icon-icons.com_57182-24" data-name="baidu-paw-logo_icon-icons.com_57182" transform="matrix(0.891, 0.454, -0.454, 0.891, 1107.098, 533.644)">
            <path id="Baidu-24" data-name="Baidu" d="M24.012,33.588c.535,7.65-3.611,14.173-9.264,14.57S4.081,42.675,3.546,35.023,7.157,20.849,12.81,20.452,23.478,25.937,24.012,33.588ZM62.938,1.874C57.447.473,51.464,5.363,49.576,12.795S50.6,27.387,56.09,28.788,67.566,25.3,69.455,17.867C71.914,8.194,64.253,2.208,62.938,1.874ZM75.812,26.925c-5.775.086-10.359,5.579-10.232,14.088s4.9,12.387,10.685,12.3S86.623,49.211,86.5,40.7C86.33,29.626,77.195,26.905,75.812,26.925ZM33.965,0c-5.5,0-9.951,6.16-9.951,13.756s4.455,13.753,9.951,13.753,9.952-6.157,9.952-13.753S39.461,0,33.965,0ZM32.693,42.72A69.91,69.91,0,0,1,18.931,57.563C11.943,63.4,8.979,67.421,8.979,73.358S12.367,89.153,22,89.153s14.292-2.121,21.915-2.121S56.623,90,66.255,90s13.658-9.117,13.658-15.053-1.672-9.3-9.391-16.072a85.657,85.657,0,0,1-15.7-17c-3.245-4.508-6.987-5.088-10.9-5.088A13.017,13.017,0,0,0,32.693,42.72Z" fill="#f77"/>
          </g>
        </g>
        <g id="sinal-6" data-name="sinal" transform="translate(786.032 -1440.223) rotate(14)">
          <path id="Caminho_1-6" data-name="Caminho 1" d="M2673.059,1762.764s74.615-24.25,145.5,0" transform="translate(-1990)" fill="none" stroke="#fff" stroke-width="7"/>
          <path id="Caminho_2-6" data-name="Caminho 2" d="M2673.059,1759.586s52.613-17.1,102.595,0" transform="translate(-1969 18.895)" fill="none" stroke="#fff" stroke-width="7"/>
          <path id="Caminho_3-6" data-name="Caminho 3" d="M2673.059,1756.925s34.191-11.112,66.672,0" transform="translate(-1951 34.225)" fill="none" stroke="#fff" stroke-width="7"/>
        </g>
      </g>
    </g>
    <g id="patas-13" data-name="patas" transform="translate(860.977 3216.459) rotate(-38)">
      <g id="Grupo_18-7" data-name="Grupo 18" transform="translate(-112 226)">
        <g id="patas-14" data-name="patas">
          <g id="baidu-paw-logo_icon-icons.com_57182-25" data-name="baidu-paw-logo_icon-icons.com_57182" transform="matrix(0.995, 0.105, -0.105, 0.995, 891.707, 829.406)">
            <path id="Baidu-25" data-name="Baidu" d="M24.012,33.588c.535,7.65-3.611,14.173-9.264,14.57S4.081,42.675,3.546,35.023,7.157,20.849,12.81,20.452,23.478,25.937,24.012,33.588ZM62.938,1.874C57.447.473,51.464,5.363,49.576,12.795S50.6,27.387,56.09,28.788,67.566,25.3,69.455,17.867C71.914,8.194,64.253,2.208,62.938,1.874ZM75.812,26.925c-5.775.086-10.359,5.579-10.232,14.088s4.9,12.387,10.685,12.3S86.623,49.211,86.5,40.7C86.33,29.626,77.195,26.905,75.812,26.925ZM33.965,0c-5.5,0-9.951,6.16-9.951,13.756s4.455,13.753,9.951,13.753,9.952-6.157,9.952-13.753S39.461,0,33.965,0ZM32.693,42.72A69.91,69.91,0,0,1,18.931,57.563C11.943,63.4,8.979,67.421,8.979,73.358S12.367,89.153,22,89.153s14.292-2.121,21.915-2.121S56.623,90,66.255,90s13.658-9.117,13.658-15.053-1.672-9.3-9.391-16.072a85.657,85.657,0,0,1-15.7-17c-3.245-4.508-6.987-5.088-10.9-5.088A13.017,13.017,0,0,0,32.693,42.72Z" fill="#ffa1fc"/>
          </g>
          <g id="baidu-paw-logo_icon-icons.com_57182-26" data-name="baidu-paw-logo_icon-icons.com_57182" transform="translate(1032.977 769.27) rotate(22)">
            <path id="Baidu-26" data-name="Baidu" d="M24.012,33.588c.535,7.65-3.611,14.173-9.264,14.57S4.081,42.675,3.546,35.023,7.157,20.849,12.81,20.452,23.478,25.937,24.012,33.588ZM62.938,1.874C57.447.473,51.464,5.363,49.576,12.795S50.6,27.387,56.09,28.788,67.566,25.3,69.455,17.867C71.914,8.194,64.253,2.208,62.938,1.874ZM75.812,26.925c-5.775.086-10.359,5.579-10.232,14.088s4.9,12.387,10.685,12.3S86.623,49.211,86.5,40.7C86.33,29.626,77.195,26.905,75.812,26.925ZM33.965,0c-5.5,0-9.951,6.16-9.951,13.756s4.455,13.753,9.951,13.753,9.952-6.157,9.952-13.753S39.461,0,33.965,0ZM32.693,42.72A69.91,69.91,0,0,1,18.931,57.563C11.943,63.4,8.979,67.421,8.979,73.358S12.367,89.153,22,89.153s14.292-2.121,21.915-2.121S56.623,90,66.255,90s13.658-9.117,13.658-15.053-1.672-9.3-9.391-16.072a85.657,85.657,0,0,1-15.7-17c-3.245-4.508-6.987-5.088-10.9-5.088A13.017,13.017,0,0,0,32.693,42.72Z" fill="#ffa1fc"/>
          </g>
          <g id="baidu-paw-logo_icon-icons.com_57182-27" data-name="baidu-paw-logo_icon-icons.com_57182" transform="translate(950.845 609.011) rotate(11)">
            <path id="Baidu-27" data-name="Baidu" d="M24.012,33.588c.535,7.65-3.611,14.173-9.264,14.57S4.081,42.675,3.546,35.023,7.157,20.849,12.81,20.452,23.478,25.937,24.012,33.588ZM62.938,1.874C57.447.473,51.464,5.363,49.576,12.795S50.6,27.387,56.09,28.788,67.566,25.3,69.455,17.867C71.914,8.194,64.253,2.208,62.938,1.874ZM75.812,26.925c-5.775.086-10.359,5.579-10.232,14.088s4.9,12.387,10.685,12.3S86.623,49.211,86.5,40.7C86.33,29.626,77.195,26.905,75.812,26.925ZM33.965,0c-5.5,0-9.951,6.16-9.951,13.756s4.455,13.753,9.951,13.753,9.952-6.157,9.952-13.753S39.461,0,33.965,0ZM32.693,42.72A69.91,69.91,0,0,1,18.931,57.563C11.943,63.4,8.979,67.421,8.979,73.358S12.367,89.153,22,89.153s14.292-2.121,21.915-2.121S56.623,90,66.255,90s13.658-9.117,13.658-15.053-1.672-9.3-9.391-16.072a85.657,85.657,0,0,1-15.7-17c-3.245-4.508-6.987-5.088-10.9-5.088A13.017,13.017,0,0,0,32.693,42.72Z" fill="#ffa1fc"/>
          </g>
          <g id="baidu-paw-logo_icon-icons.com_57182-28" data-name="baidu-paw-logo_icon-icons.com_57182" transform="matrix(0.891, 0.454, -0.454, 0.891, 1107.098, 533.644)">
            <path id="Baidu-28" data-name="Baidu" d="M24.012,33.588c.535,7.65-3.611,14.173-9.264,14.57S4.081,42.675,3.546,35.023,7.157,20.849,12.81,20.452,23.478,25.937,24.012,33.588ZM62.938,1.874C57.447.473,51.464,5.363,49.576,12.795S50.6,27.387,56.09,28.788,67.566,25.3,69.455,17.867C71.914,8.194,64.253,2.208,62.938,1.874ZM75.812,26.925c-5.775.086-10.359,5.579-10.232,14.088s4.9,12.387,10.685,12.3S86.623,49.211,86.5,40.7C86.33,29.626,77.195,26.905,75.812,26.925ZM33.965,0c-5.5,0-9.951,6.16-9.951,13.756s4.455,13.753,9.951,13.753,9.952-6.157,9.952-13.753S39.461,0,33.965,0ZM32.693,42.72A69.91,69.91,0,0,1,18.931,57.563C11.943,63.4,8.979,67.421,8.979,73.358S12.367,89.153,22,89.153s14.292-2.121,21.915-2.121S56.623,90,66.255,90s13.658-9.117,13.658-15.053-1.672-9.3-9.391-16.072a85.657,85.657,0,0,1-15.7-17c-3.245-4.508-6.987-5.088-10.9-5.088A13.017,13.017,0,0,0,32.693,42.72Z" fill="#ffa1fc"/>
          </g>
        </g>
        <g id="sinal-7" data-name="sinal" transform="translate(786.032 -1440.223) rotate(14)">
          <path id="Caminho_1-7" data-name="Caminho 1" d="M2673.059,1762.764s74.615-24.25,145.5,0" transform="translate(-1990)" fill="none" stroke="#fff" stroke-width="7"/>
          <path id="Caminho_2-7" data-name="Caminho 2" d="M2673.059,1759.586s52.613-17.1,102.595,0" transform="translate(-1969 18.895)" fill="none" stroke="#fff" stroke-width="7"/>
          <path id="Caminho_3-7" data-name="Caminho 3" d="M2673.059,1756.925s34.191-11.112,66.672,0" transform="translate(-1951 34.225)" fill="none" stroke="#fff" stroke-width="7"/>
        </g>
      </g>
    </g>
  </g>
</svg>
